<?xml version="1.0" encoding="utf-8"?>
<!-- Generator: Adobe Illustrator 25.2.0, SVG Export Plug-In . SVG Version: 6.00 Build 0)  -->
<svg version="1.1" id="Layer_1" xmlns="http://www.w3.org/2000/svg" xmlns:xlink="http://www.w3.org/1999/xlink" x="0px" y="0px"
	 viewBox="0 0 613.74 613.74" style="enable-background:new 0 0 613.74 613.74;" xml:space="preserve">
<style type="text/css">
	.st0{stroke:#000000;stroke-miterlimit:10;}
	.st1{fill:none;stroke:#FFFFFF;stroke-width:6;stroke-linecap:round;stroke-linejoin:round;stroke-miterlimit:10;}
	.st2{fill:#FFFFFF;}
	.st3{stroke:#FFFFFF;stroke-width:6;stroke-linecap:round;stroke-linejoin:round;stroke-miterlimit:10;}
	.st4{fill:#FFFFFF;stroke:#FFFFFF;stroke-miterlimit:10;}
</style>
<circle class="st0" cx="306.58" cy="306.58" r="299.71"/>
<g>
	<path class="st1" d="M524.14,473.57h-31.85c-26-192-80-399.08-186-399.08s-160,207.08-186,399.08H88.44c0,0,44.85-411,217.85-411
		S524.14,473.57,524.14,473.57z"/>
	<g>
		<path class="st2" d="M203.1,429.33c0,1.39-0.82,2.65-2.09,3.21c-4.87,2.12-10.12,3.03-15.5,3.03c-13.09,0-22.63-8.59-22.63-22.04
			c0-13.45,9.54-22.04,22.63-22.04c4.98,0,9.53,0.84,13.27,2.91c1.94,1.07,2.3,3.73,0.8,5.37l-1.63,1.78
			c-1.15,1.26-3.05,1.51-4.46,0.57c-2.07-1.38-4.59-2.09-7.97-2.09c-7.88,0-13.04,5.69-13.04,13.51c0,7.83,5.15,13.51,13.04,13.51
			c2.59,0,4.73-0.47,6.4-1.05c1.39-0.49,2.31-1.81,2.31-3.29v-1.06c0-1.93-1.56-3.49-3.49-3.49h-0.54c-1.93,0-3.49-1.56-3.49-3.49
			v-1.55c0-1.93,1.56-3.49,3.49-3.49h9.43c1.93,0,3.49,1.56,3.49,3.49V429.33z"/>
		<path class="st2" d="M227.34,392.55h3.06c1.39,0,2.65,0.82,3.2,2.1l15.21,34.96c1,2.31-0.69,4.88-3.2,4.88h-2.75
			c-1.42,0-2.7-0.86-3.23-2.18l-1.84-4.53c-0.54-1.32-1.81-2.18-3.23-2.18h-11.57c-1.44,0-2.72,0.88-3.25,2.21l-1.75,4.46
			c-0.53,1.34-1.81,2.21-3.25,2.21h-2.5c-2.51,0-4.2-2.57-3.21-4.88l15.11-34.96C224.69,393.38,225.95,392.55,227.34,392.55z
			 M225.37,413.03L225.37,413.03c-0.89,2.29,0.79,4.76,3.25,4.76l0,0c2.46,0,4.15-2.48,3.25-4.78l0,0
			C230.7,410.07,226.52,410.08,225.37,413.03z"/>
		<path class="st2" d="M254.34,400.73h-4.99c-1.93,0-3.49-1.56-3.49-3.49v-1.19c0-1.93,1.56-3.49,3.49-3.49h26.2
			c1.93,0,3.49,1.56,3.49,3.49v1.19c0,1.93-1.56,3.49-3.49,3.49h-4.99c-1.93,0-3.49,1.56-3.49,3.49v26.79
			c0,1.93-1.56,3.49-3.49,3.49h-2.26c-1.93,0-3.49-1.56-3.49-3.49v-26.79C257.83,402.29,256.27,400.73,254.34,400.73z"/>
		<path class="st2" d="M287.59,392.55h21.51c1.93,0,3.49,1.56,3.49,3.49v1.55c0,1.93-1.56,3.49-3.49,3.49h-12.27
			c-1.93,0-3.49,1.56-3.49,3.49v0.84c0,1.93,1.56,3.49,3.49,3.49h11.2c1.93,0,3.49,1.56,3.49,3.49v1.55c0,1.93-1.56,3.49-3.49,3.49
			h-11.2c-1.93,0-3.49,1.56-3.49,3.49v1.55c0,1.93,1.56,3.49,3.49,3.49h13.34c1.93,0,3.49,1.56,3.49,3.49v1.55
			c0,1.93-1.56,3.49-3.49,3.49h-22.58c-1.93,0-3.49-1.56-3.49-3.49v-34.96C284.1,394.12,285.66,392.55,287.59,392.55z"/>
		<path class="st2" d="M321.38,392.55h2.66c1.6,0,3,1.09,3.39,2.65l6.04,24.25h0.12l7.98-24.49c0.47-1.44,1.81-2.41,3.32-2.41h3.5
			c1.52,0,2.87,0.99,3.33,2.44l7.94,25.17h0.12l6.38-24.98c0.39-1.55,1.79-2.63,3.38-2.63h1.99c2.33,0,4.01,2.24,3.35,4.47
			l-10.22,34.96c-0.44,1.49-1.8,2.51-3.35,2.51h-3.07c-1.52,0-2.87-0.98-3.33-2.43l-8.47-26.6h-0.12l-8.47,26.6
			c-0.46,1.45-1.81,2.43-3.33,2.43h-2.78c-1.55,0-2.91-1.02-3.35-2.5l-10.37-34.96C317.37,394.8,319.05,392.55,321.38,392.55z"/>
		<path class="st2" d="M394.99,392.55h3.06c1.39,0,2.65,0.82,3.2,2.1l15.21,34.96c1,2.31-0.69,4.88-3.2,4.88h-2.75
			c-1.42,0-2.7-0.86-3.23-2.18l-1.84-4.53c-0.54-1.32-1.81-2.18-3.23-2.18h-11.57c-1.44,0-2.72,0.88-3.25,2.21l-1.75,4.46
			c-0.53,1.34-1.81,2.21-3.25,2.21h-2.5c-2.51,0-4.2-2.57-3.21-4.88l15.11-34.96C392.34,393.38,393.6,392.55,394.99,392.55z
			 M393.02,413.03L393.02,413.03c-0.89,2.29,0.79,4.76,3.25,4.76l0,0c2.46,0,4.15-2.48,3.25-4.78v0
			C398.35,410.07,394.17,410.08,393.02,413.03z"/>
		<path class="st2" d="M427.1,415.74l-11.65-17.78c-1.52-2.32,0.14-5.41,2.92-5.41h3c1.26,0,2.42,0.68,3.04,1.77l4.93,8.71
			c1.32,2.33,4.66,2.37,6.03,0.08l5.32-8.87c0.63-1.05,1.77-1.69,2.99-1.69h2.52c2.78,0,4.44,3.08,2.92,5.41l-11.65,17.78
			c-0.37,0.57-0.57,1.23-0.57,1.91v13.36c0,1.93-1.56,3.49-3.49,3.49h-2.26c-1.93,0-3.49-1.56-3.49-3.49v-13.36
			C427.67,416.97,427.47,416.3,427.1,415.74z"/>
	</g>
	<g>
		<g>
			<path class="st3" d="M381.62,235.86l21.64-7.52c3-1.04,6.27,0.54,7.31,3.54l20.59,59.27c1.04,3-0.54,6.27-3.54,7.31l-21.64,7.52
				c-3,1.04-6.27-0.54-7.31-3.54l-0.56-1.61c-1.04-3,0.54-6.27,3.54-7.31l8.46-2.94c3-1.04,4.58-4.31,3.54-7.31l-11.48-33.04
				c-1.04-3-4.31-4.58-7.31-3.54l-8.46,2.94c-3,1.04-6.27-0.54-7.31-3.54l-1.02-2.93C377.04,240.17,378.63,236.9,381.62,235.86z"/>
			<path class="st3" d="M290.57,258.42l35.94,103.46c1.71,4.93,7.1,7.54,12.02,5.82l71.26-24.76c4.93-1.71,7.54-7.1,5.82-12.02
				l-35.94-103.46L290.57,258.42z"/>
			<path class="st3" d="M291.96,262.43l11.67-4.06l4.76,13.69c1.1,3.17,4.56,4.85,7.73,3.74l0,0c3.81-1.32,5.83-5.49,4.5-9.3
				l-3.12-8.98c-0.68-1.95,0.35-4.09,2.31-4.77v0c1.95-0.68,4.09,0.35,4.77,2.31l8.7,25.05c1.27,3.65,5.25,5.58,8.9,4.31l0,0
				c3.89-1.35,5.95-5.6,4.6-9.5l-7.3-21.02c-1.37-3.94,0.71-8.24,4.65-9.6l0,0c3.94-1.37,8.24,0.71,9.6,4.65l1.14,3.27
				c1.38,3.97,5.72,6.08,9.7,4.7h0c3.65-1.27,5.58-5.26,4.31-8.91l-1.49-4.29c-1.29-3.7,0.67-7.74,4.37-9.03l9.14-3.18l-2.79-8.04
				c-1.6-4.59-3.39-8.14-7.98-6.55h0c-0.63,0.22-1.32-0.11-1.54-0.75v0c-2.44-7.03-12.21-2.49-20.39,0.35
				c-13.29,4.62-12.22,7.7-18.57,9.9c-2.27,0.79-6.46-1.66-9.61-0.56l-9.18,3.19c-4.02,1.4-7.62,3.74-10.55,6.82
				c-1.1,1.16-3.71,2.85-6.47,4.43c-4.61,2.64-6.71,8.17-4.96,13.19L291.96,262.43z"/>
			<line class="st3" x1="373.34" y1="282.28" x2="392.16" y2="336.47"/>
			<line class="st3" x1="328.35" y1="297.91" x2="347.18" y2="352.1"/>
			<line class="st3" x1="350.84" y1="290.09" x2="369.67" y2="344.28"/>
		</g>
		<g>
			<path class="st3" d="M230.96,235.86l-21.64-7.52c-3-1.04-6.27,0.54-7.31,3.54l-20.59,59.27c-1.04,3,0.54,6.27,3.54,7.31
				l21.64,7.52c3,1.04,6.27-0.54,7.31-3.54l0.56-1.61c1.04-3-0.54-6.27-3.54-7.31l-8.46-2.94c-3-1.04-4.58-4.31-3.54-7.31
				l11.48-33.04c1.04-3,4.31-4.58,7.31-3.54l8.46,2.94c3,1.04,6.27-0.54,7.31-3.54l1.02-2.93
				C235.54,240.17,233.95,236.9,230.96,235.86z"/>
			<path class="st3" d="M322.01,258.42l-35.94,103.46c-1.71,4.93-7.1,7.54-12.02,5.82l-71.26-24.76c-4.93-1.71-7.54-7.1-5.82-12.02
				l35.94-103.46L322.01,258.42z"/>
			<path class="st3" d="M320.62,262.43l-11.67-4.06l-4.76,13.69c-1.1,3.17-4.56,4.85-7.73,3.74l0,0c-3.81-1.32-5.83-5.49-4.5-9.3
				l3.12-8.98c0.68-1.95-0.35-4.09-2.31-4.77v0c-1.95-0.68-4.09,0.35-4.77,2.31l-8.7,25.05c-1.27,3.65-5.25,5.58-8.9,4.31l0,0
				c-3.89-1.35-5.95-5.6-4.6-9.5l7.3-21.02c1.37-3.94-0.71-8.24-4.65-9.6l0,0c-3.94-1.37-8.24,0.71-9.6,4.65l-1.14,3.27
				c-1.38,3.97-5.72,6.08-9.7,4.7h0c-3.65-1.27-5.58-5.26-4.31-8.91l1.49-4.29c1.29-3.7-0.67-7.74-4.37-9.03l-9.14-3.18l2.79-8.04
				c1.6-4.59,3.39-8.14,7.98-6.55l0,0c0.63,0.22,1.32-0.11,1.54-0.75v0c2.44-7.03,12.21-2.49,20.39,0.35
				c13.29,4.62,12.22,7.7,18.57,9.9c2.27,0.79,6.46-1.66,9.61-0.56l9.18,3.19c4.02,1.4,7.62,3.74,10.55,6.82
				c1.1,1.16,3.71,2.85,6.47,4.43c4.61,2.64,6.71,8.17,4.96,13.19L320.62,262.43z"/>
			<line class="st3" x1="239.24" y1="282.28" x2="220.42" y2="336.47"/>
			<line class="st3" x1="284.23" y1="297.91" x2="265.4" y2="352.1"/>
			<line class="st3" x1="261.74" y1="290.09" x2="242.91" y2="344.28"/>
		</g>
	</g>
	<g>
		<path class="st4" d="M194.2,447.58c0-1.25,1.02-2.27,2.27-2.27h10.21c5.86,0,12.24,1.23,12.24,8.5c0,3.74-2.32,6.29-5.77,7.37v0.1
			c4.39,0.57,7.32,3.83,7.32,8.18c0,6.99-6.61,9.31-12.57,9.31h-11.44c-1.25,0-2.27-1.02-2.27-2.27V447.58z M201.57,456.42
			c0,1.25,1.02,2.27,2.27,2.27h3.07c2.27,0,4.63-0.94,4.63-3.64c0-2.79-2.65-3.5-4.96-3.5h-2.74c-1.25,0-2.27,1.02-2.27,2.27V456.42
			z M201.57,470.27c0,1.25,1.02,2.27,2.27,2.27h4.35c2.32,0,4.91-0.99,4.91-3.92c0-3.17-3.54-3.69-5.95-3.69h-3.31
			c-1.25,0-2.27,1.02-2.27,2.27V470.27z"/>
		<path class="st4" d="M224.84,447.58c0-1.25,1.02-2.27,2.27-2.27h10.68c6.85,0,12.62,2.36,12.62,10.16c0,3.8-1.65,6.92-4.81,8.41
			c-1.21,0.57-1.6,2.13-0.91,3.28l4.92,8.18c0.91,1.51-0.18,3.44-1.94,3.44h-3.45c-0.84,0-1.62-0.47-2.01-1.22l-5.72-10.94
			c-0.39-0.75-1.17-1.22-2.01-1.22l0,0c-1.25,0-2.27,1.02-2.27,2.27v8.84c0,1.25-1.02,2.27-2.27,2.27h-2.84
			c-1.25,0-2.27-1.02-2.27-2.27V447.58z M232.21,456.89c0,1.25,1.02,2.27,2.27,2.27h2.08c2.69,0,6.19-0.09,6.19-3.73
			c0-3.36-3.02-3.88-5.72-3.88h-2.55c-1.25,0-2.27,1.02-2.27,2.27V456.89z"/>
		<path class="st4" d="M258.03,445.32h18.2c1.25,0,2.27,1.02,2.27,2.27v2.27c0,1.25-1.02,2.27-2.27,2.27h-10.82
			c-1.25,0-2.27,1.02-2.27,2.27v1.71c0,1.25,1.02,2.27,2.27,2.27h9.97c1.25,0,2.27,1.02,2.27,2.27v2.27c0,1.25-1.02,2.27-2.27,2.27
			h-9.97c-1.25,0-2.27,1.02-2.27,2.27v2.27c0,1.25,1.02,2.27,2.27,2.27h11.68c1.25,0,2.27,1.02,2.27,2.27v2.27
			c0,1.25-1.02,2.27-2.27,2.27h-19.05c-1.25,0-2.27-1.02-2.27-2.27v-28.92C255.77,446.33,256.78,445.32,258.03,445.32z"/>
		<path class="st4" d="M284.81,445.32h3.22c1.04,0,1.95,0.71,2.2,1.72l4.91,19.74h0.09l6.48-19.89c0.3-0.93,1.17-1.56,2.16-1.56
			h3.55c0.99,0,1.86,0.64,2.16,1.59l6.45,20.44h0.09l5.19-20.32c0.26-1,1.16-1.71,2.2-1.71h2.68c1.51,0,2.6,1.45,2.18,2.9
			l-8.46,28.92c-0.28,0.97-1.17,1.63-2.18,1.63h-3.21c-0.99,0-1.86-0.64-2.16-1.58l-6.87-21.58h-0.09l-6.87,21.58
			c-0.3,0.94-1.17,1.58-2.16,1.58h-2.98c-1,0-1.89-0.66-2.17-1.62l-8.58-28.92C282.21,446.77,283.3,445.32,284.81,445.32z"/>
		<path class="st4" d="M335.11,445.32h18.2c1.25,0,2.27,1.02,2.27,2.27v2.27c0,1.25-1.02,2.27-2.27,2.27h-10.82
			c-1.25,0-2.27,1.02-2.27,2.27v1.71c0,1.25,1.02,2.27,2.27,2.27h9.97c1.25,0,2.27,1.02,2.27,2.27v2.27c0,1.25-1.02,2.27-2.27,2.27
			h-9.97c-1.25,0-2.27,1.02-2.27,2.27v2.27c0,1.25,1.02,2.27,2.27,2.27h11.68c1.25,0,2.27,1.02,2.27,2.27v2.27
			c0,1.25-1.02,2.27-2.27,2.27h-19.05c-1.25,0-2.27-1.02-2.27-2.27v-28.92C332.84,446.33,333.86,445.32,335.11,445.32z"/>
		<path class="st4" d="M362.35,447.58c0-1.25,1.02-2.27,2.27-2.27h10.68c6.85,0,12.62,2.36,12.62,10.16c0,3.8-1.65,6.92-4.81,8.41
			c-1.21,0.57-1.6,2.13-0.91,3.28l4.92,8.18c0.91,1.51-0.18,3.44-1.94,3.44h-3.45c-0.84,0-1.62-0.47-2.01-1.22L374,466.62
			c-0.39-0.75-1.17-1.22-2.01-1.22h0c-1.25,0-2.27,1.02-2.27,2.27v8.84c0,1.25-1.02,2.27-2.27,2.27h-2.84
			c-1.25,0-2.27-1.02-2.27-2.27V447.58z M369.72,456.89c0,1.25,1.02,2.27,2.27,2.27h2.08c2.69,0,6.19-0.09,6.19-3.73
			c0-3.36-3.02-3.88-5.72-3.88h-2.55c-1.25,0-2.27,1.02-2.27,2.27V456.89z"/>
		<path class="st4" d="M399.99,463.94l-9.9-15.11c-0.99-1.51,0.09-3.51,1.9-3.51h3.65c0.82,0,1.57,0.44,1.97,1.15l4.52,7.99
			c0.86,1.51,3.02,1.54,3.92,0.05l4.85-8.09c0.41-0.68,1.15-1.1,1.94-1.1h3.26c1.8,0,2.88,2,1.9,3.51l-9.9,15.11
			c-0.24,0.37-0.37,0.8-0.37,1.24v11.33c0,1.25-1.02,2.27-2.27,2.27h-2.84c-1.25,0-2.27-1.02-2.27-2.27v-11.33
			C400.36,464.74,400.23,464.31,399.99,463.94z"/>
	</g>
</g>
<g>
</g>
<g>
</g>
<g>
</g>
<g>
</g>
<g>
</g>
<g>
</g>
<g>
</g>
<g>
</g>
<g>
</g>
<g>
</g>
<g>
</g>
<g>
</g>
<g>
</g>
<g>
</g>
<g>
</g>
</svg>
